<?xml version="1.0" encoding="utf-8"?>
<!-- Generator: Adobe Illustrator 22.1.0, SVG Export Plug-In . SVG Version: 6.00 Build 0)  -->
<svg version="1.1" id="Layer_1" xmlns="http://www.w3.org/2000/svg" xmlns:xlink="http://www.w3.org/1999/xlink" x="0px" y="0px"
	 viewBox="0 0 122 45" style="enable-background:new 0 0 122 45;" xml:space="preserve">
<g id="Layer_6">
	<g id="end-logo">
		<polygon points="0.8,43.5 0.8,0 23.7,0 23.7,7.2 9.2,7.2 9.2,17.2 20.4,17.2 20.4,24.8 9.2,24.8 9.2,36.1 24.3,36.1 24.3,43.5 		
			"/>
		<polygon points="37,43.5 37,0 46.1,0 57.7,25.9 58.1,25.9 58.1,0 65.4,0 65.4,43.5 57.6,43.5 44.7,15.2 44.5,15.2 44.5,43.5 		"/>
		<g>
			<path d="M87.7,36.1h3.1c4.6,0,7.3-2.2,7.3-8.9V15.7c0-6.3-2.1-8.9-7.3-8.9h-3.1V36.1z M79.2,0H91c9.7,0,15,4.1,15.3,15.1v13.3
				c-0.4,11-5.8,15.1-15.3,15.1H79.2C79.2,43.8,79.2,0,79.2,0z"/>
		</g>
		<rect x="113.2" y="34.9" width="8.8" height="8.7"/>
	</g>
</g>
</svg>
